<mxfile host="Electron" agent="Mozilla/5.0 (Windows NT 10.0; Win64; x64) AppleWebKit/537.36 (KHTML, like Gecko) draw.io/25.0.2 Chrome/128.0.6613.186 Electron/32.2.5 Safari/537.36" version="25.0.2">
  <diagram name="Page-1" id="6q55u24PyY2lI7wjEJeS">
    <mxGraphModel dx="231" dy="135" grid="1" gridSize="3.937" guides="0" tooltips="1" connect="1" arrows="1" fold="1" page="1" pageScale="1" pageWidth="583" pageHeight="827" math="0" shadow="0">
      <root>
        <mxCell id="0" />
        <mxCell id="1" parent="0" />
        <mxCell id="PEXuOpN_gfjlifwDr6Oz-19" value="1.5" style="verticalLabelPosition=middle;verticalAlign=middle;shape=mxgraph.basic.rect;fillColor2=none;strokeWidth=0.3937;size=20;indent=5;snapToPoint=1;spacing=0;fontSize=3;labelPosition=center;align=left;spacingTop=1.9685;fontFamily=Consolas;spacingLeft=1.9685;fillColor=#FFF2CC;" parent="1" vertex="1">
          <mxGeometry x="39.38" y="84.65" width="47.23" height="5.9" as="geometry" />
        </mxCell>
        <mxCell id="BOpzRuNXo1N_ohKq1Wjf-14" value="1.5" style="verticalLabelPosition=middle;verticalAlign=middle;shape=mxgraph.basic.rect;fillColor2=none;strokeWidth=0.3937;size=20;indent=5;snapToPoint=1;spacing=0;fontSize=3;labelPosition=center;align=left;spacingTop=1.9685;spacingLeft=1.9685;fontFamily=Consolas;" parent="1" vertex="1">
          <mxGeometry x="200.78" y="372.06" width="57.09" height="5.91" as="geometry" />
        </mxCell>
        <mxCell id="BFdBF8wN3BKMCY04Q8-_-1" value="3" style="verticalLabelPosition=middle;verticalAlign=middle;shape=mxgraph.basic.rect;fillColor2=none;strokeWidth=0.3937;size=5;indent=5;topLeftStyle=default;fontSize=3;labelPosition=center;align=left;spacing=0;spacingLeft=1.9685;fontFamily=Consolas;spacingTop=1.9685;" parent="1" vertex="1">
          <mxGeometry x="179.13" y="350.41" width="157.47" height="11.81" as="geometry" />
        </mxCell>
        <mxCell id="BFdBF8wN3BKMCY04Q8-_-3" value="3" style="verticalLabelPosition=middle;verticalAlign=middle;shape=mxgraph.basic.rect;fillColor2=none;strokeWidth=0.3937;size=20;indent=5;labelPosition=center;align=left;fontSize=3;spacing=0;spacingLeft=1.9685;fontFamily=Consolas;spacingTop=1.9685;" parent="1" vertex="1">
          <mxGeometry x="179.13" y="377.96" width="39.36" height="11.82" as="geometry" />
        </mxCell>
        <mxCell id="BFdBF8wN3BKMCY04Q8-_-4" value="1" style="verticalLabelPosition=middle;verticalAlign=middle;shape=mxgraph.basic.rect;fillColor2=none;strokeWidth=0.3937;size=20;indent=5;spacing=0;fontSize=2;labelPosition=center;align=left;spacingLeft=1.9685;fontFamily=Consolas;spacingTop=1.9685;" parent="1" vertex="1">
          <mxGeometry x="192.90000000000003" y="407.5" width="143.69" height="3.94" as="geometry" />
        </mxCell>
        <mxCell id="BFdBF8wN3BKMCY04Q8-_-5" value="" style="verticalLabelPosition=bottom;verticalAlign=top;shape=mxgraph.basic.rect;fillColor2=none;strokeWidth=0.3937;size=20;indent=5;snapToPoint=1;spacing=0;fontFamily=Consolas;spacingTop=1.9685;spacingLeft=1.9685;" parent="1" vertex="1">
          <mxGeometry x="281.4800000000001" y="391.74" width="7.87" height="10.63" as="geometry" />
        </mxCell>
        <mxCell id="BFdBF8wN3BKMCY04Q8-_-6" value="5.0 mm" style="verticalLabelPosition=middle;verticalAlign=middle;shape=mxgraph.basic.rect;fillColor2=none;strokeWidth=0.3937;size=20;indent=5;snapToPoint=1;labelPosition=center;align=center;spacing=0;fontSize=3;fontFamily=Consolas;spacingTop=1.9685;spacingLeft=1.9685;" parent="1" vertex="1">
          <mxGeometry x="257.85849999999994" y="372.0542" width="55.117999999999995" height="19.68" as="geometry" />
        </mxCell>
        <mxCell id="BOpzRuNXo1N_ohKq1Wjf-1" value="PCB 1.5 mm" style="verticalLabelPosition=middle;verticalAlign=middle;shape=mxgraph.basic.rect;fillColor2=none;strokeWidth=0.3937;size=20;indent=5;snapToPoint=1;spacing=0;fontSize=3;labelPosition=center;align=center;spacingTop=1.9685;fontFamily=Consolas;spacingLeft=1.9685;" parent="1" vertex="1">
          <mxGeometry x="222.42999999999998" y="391.74" width="59.06" height="5.91" as="geometry" />
        </mxCell>
        <mxCell id="BOpzRuNXo1N_ohKq1Wjf-7" value="PCB 1.5 mm" style="verticalLabelPosition=middle;verticalAlign=middle;shape=mxgraph.basic.rect;fillColor2=none;strokeWidth=0.3937;size=20;indent=5;snapToPoint=1;spacing=0;fontSize=3;labelPosition=center;align=center;spacingTop=1.9685;fontFamily=Consolas;spacingLeft=1.9685;" parent="1" vertex="1">
          <mxGeometry x="289.36000000000007" y="391.74" width="47.24" height="5.91" as="geometry" />
        </mxCell>
        <mxCell id="BOpzRuNXo1N_ohKq1Wjf-8" value="2" style="verticalLabelPosition=middle;verticalAlign=middle;shape=mxgraph.basic.rect;fillColor2=none;strokeWidth=0.3937;size=20;indent=5;snapToPoint=1;spacing=0;fontSize=3;labelPosition=center;align=center;spacingTop=1.9685;fontFamily=Consolas;spacingLeft=1.9685;" parent="1" vertex="1">
          <mxGeometry x="257.86" y="397.65000000000003" width="23.61" height="7.874" as="geometry" />
        </mxCell>
        <mxCell id="BOpzRuNXo1N_ohKq1Wjf-16" value="1.5" style="verticalLabelPosition=middle;verticalAlign=middle;shape=mxgraph.basic.rect;fillColor2=none;strokeWidth=0.3937;size=20;indent=5;snapToPoint=1;spacing=0;fontSize=3;labelPosition=center;align=center;spacingTop=1.9685;fontFamily=Consolas;spacingLeft=1.9685;" parent="1" vertex="1">
          <mxGeometry x="312.99000000000007" y="372.06" width="23.61" height="5.91" as="geometry" />
        </mxCell>
        <mxCell id="12Ary9XXmufizBWTGnjO-1" value="1" style="verticalLabelPosition=middle;verticalAlign=middle;shape=mxgraph.basic.rect;fillColor2=none;strokeWidth=0.3937;size=20;indent=5;snapToPoint=1;spacing=0;fontSize=2;labelPosition=center;align=left;spacingTop=1.9685;spacingLeft=1.9685;fontFamily=Consolas;fillColor=#999999;" parent="1" vertex="1">
          <mxGeometry x="90.55" y="59.05" width="232.28" height="3.94" as="geometry" />
        </mxCell>
        <mxCell id="12Ary9XXmufizBWTGnjO-2" value="2.5" style="verticalLabelPosition=middle;verticalAlign=middle;shape=mxgraph.basic.rect;fillColor2=none;strokeWidth=0.3937;size=5;indent=5;topLeftStyle=default;spacing=0;labelPosition=center;align=left;fontSize=3;spacingLeft=1.9685;fontFamily=Consolas;spacingTop=1.9685;fillColor=#FFF2CC;" parent="1" vertex="1">
          <mxGeometry x="39.37" y="47.239999999999995" width="283.46" height="9.84" as="geometry" />
        </mxCell>
        <mxCell id="12Ary9XXmufizBWTGnjO-4" value="1" style="verticalLabelPosition=middle;verticalAlign=middle;shape=mxgraph.basic.rect;fillColor2=none;strokeWidth=0.3937;size=20;indent=5;labelPosition=center;align=left;spacing=0;fontSize=2;spacingLeft=1.9685;fontFamily=Consolas;spacingTop=1.9685;fillColor=none;" parent="1" vertex="1">
          <mxGeometry x="90.55" y="84.64" width="232.28" height="3.94" as="geometry" />
        </mxCell>
        <mxCell id="12Ary9XXmufizBWTGnjO-7" value="SWITCH UPPER PART 3.0 mm" style="verticalLabelPosition=middle;verticalAlign=middle;shape=mxgraph.basic.rect;fillColor2=none;strokeWidth=0.3937;size=20;indent=5;snapToPoint=1;spacing=0;fontSize=3;labelPosition=center;align=center;fontFamily=Consolas;spacingTop=1.9685;spacingLeft=1.9685;fillColor=default;" parent="1" vertex="1">
          <mxGeometry x="196.24" y="47.239999999999995" width="55.11" height="11.81" as="geometry" />
        </mxCell>
        <mxCell id="12Ary9XXmufizBWTGnjO-9" value="1.5" style="verticalLabelPosition=middle;verticalAlign=middle;shape=mxgraph.basic.rect;fillColor2=none;strokeWidth=0.3937;size=20;indent=5;snapToPoint=1;spacing=0;fontSize=3;labelPosition=center;align=left;spacingTop=1.9685;fontFamily=Consolas;spacingLeft=1.9685;spacingRight=3.937;fillColor=#45AD45;" parent="1" vertex="1">
          <mxGeometry x="129.92" y="68.89" width="192.91" height="5.91" as="geometry" />
        </mxCell>
        <mxCell id="IHAw7xpyFStyCsIP_Cdi-9" value="&lt;div&gt;&lt;font face=&quot;Consolas&quot; style=&quot;font-size: 2px;&quot;&gt;Th&amp;nbsp; &amp;nbsp; &amp;nbsp;minD&amp;nbsp; &amp;nbsp;minS&lt;/font&gt;&lt;/div&gt;&lt;font face=&quot;Consolas&quot; style=&quot;font-size: 2px;&quot;&gt;0.5&amp;nbsp; &amp;nbsp; 0.5&amp;nbsp; &amp;nbsp; 0.5&lt;/font&gt;&lt;div style=&quot;line-height: 150%;&quot;&gt;&lt;font face=&quot;Consolas&quot; style=&quot;font-size: 2px;&quot;&gt;0.8&amp;nbsp; &amp;nbsp; 0.5&amp;nbsp; &amp;nbsp; 0.5&lt;/font&gt;&lt;/div&gt;&lt;div style=&quot;line-height: 150%;&quot;&gt;&lt;font face=&quot;Consolas&quot; style=&quot;font-size: 2px;&quot;&gt;1.0&amp;nbsp; &amp;nbsp; 0.5&amp;nbsp; &amp;nbsp; 1.0&lt;/font&gt;&lt;/div&gt;&lt;div style=&quot;line-height: 150%;&quot;&gt;&lt;font face=&quot;Consolas&quot; style=&quot;font-size: 2px;&quot;&gt;1.2&amp;nbsp; &amp;nbsp; 0.8&amp;nbsp; &amp;nbsp; 1.0&lt;/font&gt;&lt;/div&gt;&lt;div style=&quot;line-height: 150%;&quot;&gt;&lt;font face=&quot;Consolas&quot; style=&quot;font-size: 2px;&quot;&gt;1.5&amp;nbsp; &amp;nbsp; 0.8&amp;nbsp; &amp;nbsp; 1.5&lt;/font&gt;&lt;/div&gt;&lt;div style=&quot;line-height: 150%;&quot;&gt;&lt;font face=&quot;Consolas&quot; style=&quot;font-size: 2px;&quot;&gt;2.0&amp;nbsp; &amp;nbsp; 1.5&amp;nbsp; &amp;nbsp; 1.5&lt;/font&gt;&lt;/div&gt;&lt;div style=&quot;line-height: 150%;&quot;&gt;&lt;font face=&quot;Consolas&quot; style=&quot;font-size: 2px;&quot;&gt;2.5&amp;nbsp; &amp;nbsp; 2.0&amp;nbsp; &amp;nbsp; 1.75&lt;/font&gt;&lt;/div&gt;&lt;div style=&quot;line-height: 150%;&quot;&gt;&lt;font face=&quot;Consolas&quot; style=&quot;font-size: 2px;&quot;&gt;3.0&amp;nbsp; &amp;nbsp; 2.5&amp;nbsp; &amp;nbsp; 2.1&lt;/font&gt;&lt;/div&gt;&lt;div style=&quot;line-height: 150%;&quot;&gt;&lt;font face=&quot;Consolas&quot; style=&quot;font-size: 2px;&quot;&gt;4.0&amp;nbsp; &amp;nbsp; 2.5&amp;nbsp; &amp;nbsp; 2.8&lt;/font&gt;&lt;/div&gt;&lt;div style=&quot;line-height: 150%;&quot;&gt;&lt;font face=&quot;Consolas&quot; style=&quot;font-size: 2px;&quot;&gt;5.0&amp;nbsp; &amp;nbsp; 3.5&amp;nbsp; &amp;nbsp; 3.5&lt;/font&gt;&lt;/div&gt;&lt;div style=&quot;line-height: 150%;&quot;&gt;&lt;font face=&quot;Consolas&quot; style=&quot;font-size: 2px;&quot;&gt;6.0&amp;nbsp; &amp;nbsp; 4.0&amp;nbsp; &amp;nbsp; 4.2&lt;/font&gt;&lt;/div&gt;&lt;div style=&quot;line-height: 150%;&quot;&gt;&lt;font face=&quot;Consolas&quot; style=&quot;font-size: 2px;&quot;&gt;8.0&amp;nbsp; &amp;nbsp; 5.0&amp;nbsp; &amp;nbsp; 5.6&lt;/font&gt;&lt;/div&gt;" style="text;html=1;align=left;verticalAlign=top;whiteSpace=wrap;rounded=0;fontSize=2;spacing=0;spacingLeft=5.9055;" parent="1" vertex="1">
          <mxGeometry x="-0.01" y="32.8" width="37.81" height="45.27" as="geometry" />
        </mxCell>
        <mxCell id="pGMCf8du6IPaKGWiBUyU-11" value="3.5" style="verticalLabelPosition=middle;verticalAlign=middle;shape=mxgraph.basic.rect;fillColor2=none;strokeWidth=0.3937;size=20;indent=0;snapToPoint=1;spacing=0;labelPosition=center;align=center;fontSize=3;fontFamily=Consolas;spacingTop=1.9685;spacingLeft=1.9685;" parent="1" vertex="1">
          <mxGeometry x="228.34" y="377.96" width="11.81" height="13.78" as="geometry" />
        </mxCell>
        <mxCell id="I9b-SbaB7nnPd9SZiFOt-1" value="1" style="verticalLabelPosition=middle;verticalAlign=middle;shape=mxgraph.basic.rect;fillColor2=none;strokeWidth=0.3937;size=20;indent=5;snapToPoint=1;spacing=0;fontSize=2;labelPosition=center;align=center;spacingTop=1.9685;spacingLeft=0;spacingRight=0;fontFamily=Consolas;" parent="1" vertex="1">
          <mxGeometry x="27.570000000000014" y="47.23999999999997" width="5.9" height="3.93" as="geometry" />
        </mxCell>
        <mxCell id="I9b-SbaB7nnPd9SZiFOt-2" value="2" style="verticalLabelPosition=middle;verticalAlign=middle;shape=mxgraph.basic.rect;fillColor2=none;strokeWidth=0.3937;size=20;indent=5;snapToPoint=1;spacing=0;fontSize=2;labelPosition=center;align=center;spacingTop=1.9685;spacingLeft=0;spacingRight=0;fontFamily=Consolas;" parent="1" vertex="1">
          <mxGeometry x="27.570000000000014" y="51.16999999999997" width="5.9" height="3.93" as="geometry" />
        </mxCell>
        <mxCell id="I9b-SbaB7nnPd9SZiFOt-3" value="3" style="verticalLabelPosition=middle;verticalAlign=middle;shape=mxgraph.basic.rect;fillColor2=none;strokeWidth=0.3937;size=20;indent=5;snapToPoint=1;spacing=0;fontSize=2;labelPosition=center;align=center;spacingTop=1.9685;spacingLeft=0;spacingRight=0;fontFamily=Consolas;" parent="1" vertex="1">
          <mxGeometry x="27.570000000000014" y="55.10999999999997" width="5.9" height="3.93" as="geometry" />
        </mxCell>
        <mxCell id="I9b-SbaB7nnPd9SZiFOt-4" value="4" style="verticalLabelPosition=middle;verticalAlign=middle;shape=mxgraph.basic.rect;fillColor2=none;strokeWidth=0.3937;size=1.77;indent=5;snapToPoint=1;spacing=0;fontSize=2;labelPosition=center;align=center;spacingTop=1.9685;spacingLeft=0;spacingRight=0;fontFamily=Consolas;" parent="1" vertex="1">
          <mxGeometry x="27.570000000000014" y="59.04999999999997" width="5.9" height="3.93" as="geometry" />
        </mxCell>
        <mxCell id="I9b-SbaB7nnPd9SZiFOt-5" value="5" style="verticalLabelPosition=middle;verticalAlign=middle;shape=mxgraph.basic.rect;fillColor2=none;strokeWidth=0.3937;size=1.77;indent=5;snapToPoint=1;spacing=0;fontSize=2;labelPosition=center;align=center;spacingTop=1.9685;spacingLeft=0;spacingRight=0;fontFamily=Consolas;" parent="1" vertex="1">
          <mxGeometry x="27.570000000000014" y="62.98999999999997" width="5.9" height="3.93" as="geometry" />
        </mxCell>
        <mxCell id="I9b-SbaB7nnPd9SZiFOt-6" value="6" style="verticalLabelPosition=middle;verticalAlign=middle;shape=mxgraph.basic.rect;fillColor2=none;strokeWidth=0.3937;size=1.77;indent=5;snapToPoint=1;spacing=0;fontSize=2;labelPosition=center;align=center;spacingTop=1.9685;spacingLeft=0;spacingRight=0;fontFamily=Consolas;" parent="1" vertex="1">
          <mxGeometry x="27.570000000000014" y="66.91999999999999" width="5.9" height="3.93" as="geometry" />
        </mxCell>
        <mxCell id="I9b-SbaB7nnPd9SZiFOt-7" value="7" style="verticalLabelPosition=middle;verticalAlign=middle;shape=mxgraph.basic.rect;fillColor2=none;strokeWidth=0.3937;size=1.77;indent=5;snapToPoint=1;spacing=0;fontSize=2;labelPosition=center;align=center;spacingTop=1.9685;spacingLeft=0;spacingRight=0;fontFamily=Consolas;" parent="1" vertex="1">
          <mxGeometry x="27.570000000000014" y="70.85999999999999" width="5.9" height="3.93" as="geometry" />
        </mxCell>
        <mxCell id="I9b-SbaB7nnPd9SZiFOt-8" value="8" style="verticalLabelPosition=middle;verticalAlign=middle;shape=mxgraph.basic.rect;fillColor2=none;strokeWidth=0.3937;size=1.77;indent=5;snapToPoint=1;spacing=0;fontSize=2;labelPosition=center;align=center;spacingTop=1.9685;spacingLeft=0;spacingRight=0;fontFamily=Consolas;" parent="1" vertex="1">
          <mxGeometry x="27.570000000000014" y="74.79999999999998" width="5.9" height="3.93" as="geometry" />
        </mxCell>
        <mxCell id="I9b-SbaB7nnPd9SZiFOt-9" value="9" style="verticalLabelPosition=middle;verticalAlign=middle;shape=mxgraph.basic.rect;fillColor2=none;strokeWidth=0.3937;size=1.77;indent=5;snapToPoint=1;spacing=0;fontSize=2;labelPosition=center;align=center;spacingTop=1.9685;spacingLeft=0;spacingRight=0;fontFamily=Consolas;" parent="1" vertex="1">
          <mxGeometry x="27.570000000000014" y="78.72999999999999" width="5.9" height="3.93" as="geometry" />
        </mxCell>
        <mxCell id="I9b-SbaB7nnPd9SZiFOt-12" value="1" style="verticalLabelPosition=middle;verticalAlign=middle;shape=mxgraph.basic.rect;fillColor2=none;strokeWidth=0.3937;size=20;indent=5;snapToPoint=1;spacing=0;fontSize=2;labelPosition=center;align=center;spacingTop=1.9685;spacingLeft=0;spacingRight=0;fontFamily=Consolas;" parent="1" vertex="1">
          <mxGeometry x="169.29000000000002" y="350.40999999999997" width="5.9" height="3.93" as="geometry" />
        </mxCell>
        <mxCell id="I9b-SbaB7nnPd9SZiFOt-13" value="2" style="verticalLabelPosition=middle;verticalAlign=middle;shape=mxgraph.basic.rect;fillColor2=none;strokeWidth=0.3937;size=20;indent=5;snapToPoint=1;spacing=0;fontSize=2;labelPosition=center;align=center;spacingTop=1.9685;spacingLeft=0;spacingRight=0;fontFamily=Consolas;" parent="1" vertex="1">
          <mxGeometry x="169.29000000000002" y="354.34" width="5.9" height="3.93" as="geometry" />
        </mxCell>
        <mxCell id="I9b-SbaB7nnPd9SZiFOt-14" value="3" style="verticalLabelPosition=middle;verticalAlign=middle;shape=mxgraph.basic.rect;fillColor2=none;strokeWidth=0.3937;size=20;indent=5;snapToPoint=1;spacing=0;fontSize=2;labelPosition=center;align=center;spacingTop=1.9685;spacingLeft=0;spacingRight=0;fontFamily=Consolas;" parent="1" vertex="1">
          <mxGeometry x="169.29000000000002" y="358.28" width="5.9" height="3.93" as="geometry" />
        </mxCell>
        <mxCell id="I9b-SbaB7nnPd9SZiFOt-15" value="4" style="verticalLabelPosition=middle;verticalAlign=middle;shape=mxgraph.basic.rect;fillColor2=none;strokeWidth=0.3937;size=1.77;indent=5;snapToPoint=1;spacing=0;fontSize=2;labelPosition=center;align=center;spacingTop=1.9685;spacingLeft=0;spacingRight=0;fontFamily=Consolas;" parent="1" vertex="1">
          <mxGeometry x="169.29000000000002" y="362.21999999999997" width="5.9" height="3.93" as="geometry" />
        </mxCell>
        <mxCell id="I9b-SbaB7nnPd9SZiFOt-16" value="5" style="verticalLabelPosition=middle;verticalAlign=middle;shape=mxgraph.basic.rect;fillColor2=none;strokeWidth=0.3937;size=1.77;indent=5;snapToPoint=1;spacing=0;fontSize=2;labelPosition=center;align=center;spacingTop=1.9685;spacingLeft=0;spacingRight=0;fontFamily=Consolas;" parent="1" vertex="1">
          <mxGeometry x="169.29000000000002" y="366.15999999999997" width="5.9" height="3.93" as="geometry" />
        </mxCell>
        <mxCell id="I9b-SbaB7nnPd9SZiFOt-17" value="6" style="verticalLabelPosition=middle;verticalAlign=middle;shape=mxgraph.basic.rect;fillColor2=none;strokeWidth=0.3937;size=1.77;indent=5;snapToPoint=1;spacing=0;fontSize=2;labelPosition=center;align=center;spacingTop=1.9685;spacingLeft=0;spacingRight=0;fontFamily=Consolas;" parent="1" vertex="1">
          <mxGeometry x="169.29000000000002" y="370.09" width="5.9" height="3.93" as="geometry" />
        </mxCell>
        <mxCell id="I9b-SbaB7nnPd9SZiFOt-18" value="7" style="verticalLabelPosition=middle;verticalAlign=middle;shape=mxgraph.basic.rect;fillColor2=none;strokeWidth=0.3937;size=1.77;indent=5;snapToPoint=1;spacing=0;fontSize=2;labelPosition=center;align=center;spacingTop=1.9685;spacingLeft=0;spacingRight=0;fontFamily=Consolas;" parent="1" vertex="1">
          <mxGeometry x="169.29000000000002" y="374.03" width="5.9" height="3.93" as="geometry" />
        </mxCell>
        <mxCell id="I9b-SbaB7nnPd9SZiFOt-19" value="8" style="verticalLabelPosition=middle;verticalAlign=middle;shape=mxgraph.basic.rect;fillColor2=none;strokeWidth=0.3937;size=1.77;indent=5;snapToPoint=1;spacing=0;fontSize=2;labelPosition=center;align=center;spacingTop=1.9685;spacingLeft=0;spacingRight=0;fontFamily=Consolas;" parent="1" vertex="1">
          <mxGeometry x="169.29000000000002" y="377.96999999999997" width="5.9" height="3.93" as="geometry" />
        </mxCell>
        <mxCell id="I9b-SbaB7nnPd9SZiFOt-20" value="9" style="verticalLabelPosition=middle;verticalAlign=middle;shape=mxgraph.basic.rect;fillColor2=none;strokeWidth=0.3937;size=1.77;indent=5;snapToPoint=1;spacing=0;fontSize=2;labelPosition=center;align=center;spacingTop=1.9685;spacingLeft=0;spacingRight=0;fontFamily=Consolas;" parent="1" vertex="1">
          <mxGeometry x="169.29000000000002" y="381.9" width="5.9" height="3.93" as="geometry" />
        </mxCell>
        <mxCell id="I9b-SbaB7nnPd9SZiFOt-21" value="10" style="verticalLabelPosition=middle;verticalAlign=middle;shape=mxgraph.basic.rect;fillColor2=none;strokeWidth=0.3937;size=1.77;indent=5;snapToPoint=1;spacing=0;fontSize=2;labelPosition=center;align=center;spacingTop=1.9685;spacingLeft=0;spacingRight=0;fontFamily=Consolas;" parent="1" vertex="1">
          <mxGeometry x="169.29000000000002" y="385.84" width="5.9" height="3.93" as="geometry" />
        </mxCell>
        <mxCell id="I9b-SbaB7nnPd9SZiFOt-22" value="11" style="verticalLabelPosition=middle;verticalAlign=middle;shape=mxgraph.basic.rect;fillColor2=none;strokeWidth=0.3937;size=1.77;indent=5;snapToPoint=1;spacing=0;fontSize=2;labelPosition=center;align=center;spacingTop=1.9685;spacingLeft=0;spacingRight=0;fontFamily=Consolas;" parent="1" vertex="1">
          <mxGeometry x="169.29000000000002" y="389.78" width="5.9" height="3.93" as="geometry" />
        </mxCell>
        <mxCell id="I9b-SbaB7nnPd9SZiFOt-23" value="12" style="verticalLabelPosition=middle;verticalAlign=middle;shape=mxgraph.basic.rect;fillColor2=none;strokeWidth=0.3937;size=1.77;indent=5;snapToPoint=1;spacing=0;fontSize=2;labelPosition=center;align=center;spacingTop=1.9685;spacingLeft=0;spacingRight=0;fontFamily=Consolas;" parent="1" vertex="1">
          <mxGeometry x="169.29000000000002" y="393.71" width="5.9" height="3.93" as="geometry" />
        </mxCell>
        <mxCell id="I9b-SbaB7nnPd9SZiFOt-24" value="13" style="verticalLabelPosition=middle;verticalAlign=middle;shape=mxgraph.basic.rect;fillColor2=none;strokeWidth=0.3937;size=1.77;indent=5;snapToPoint=1;spacing=0;fontSize=2;labelPosition=center;align=center;spacingTop=1.9685;spacingLeft=0;spacingRight=0;fontFamily=Consolas;" parent="1" vertex="1">
          <mxGeometry x="169.29000000000002" y="397.65" width="5.9" height="3.93" as="geometry" />
        </mxCell>
        <mxCell id="I9b-SbaB7nnPd9SZiFOt-25" value="14" style="verticalLabelPosition=middle;verticalAlign=middle;shape=mxgraph.basic.rect;fillColor2=none;strokeWidth=0.3937;size=1.77;indent=5;snapToPoint=1;spacing=0;fontSize=2;labelPosition=center;align=center;spacingTop=1.9685;spacingLeft=0;spacingRight=0;fontFamily=Consolas;" parent="1" vertex="1">
          <mxGeometry x="169.29000000000002" y="401.59" width="5.9" height="3.93" as="geometry" />
        </mxCell>
        <mxCell id="I9b-SbaB7nnPd9SZiFOt-26" value="15" style="verticalLabelPosition=middle;verticalAlign=middle;shape=mxgraph.basic.rect;fillColor2=none;strokeWidth=0.3937;size=1.77;indent=5;snapToPoint=1;spacing=0;fontSize=2;labelPosition=center;align=center;spacingTop=1.9685;spacingLeft=0;spacingRight=0;fontFamily=Consolas;" parent="1" vertex="1">
          <mxGeometry x="169.29000000000002" y="405.52" width="5.9" height="3.93" as="geometry" />
        </mxCell>
        <mxCell id="I9b-SbaB7nnPd9SZiFOt-27" value="16" style="verticalLabelPosition=middle;verticalAlign=middle;shape=mxgraph.basic.rect;fillColor2=none;strokeWidth=0.3937;size=1.77;indent=5;snapToPoint=1;spacing=0;fontSize=2;labelPosition=center;align=center;spacingTop=1.9685;spacingLeft=0;spacingRight=0;fontFamily=Consolas;" parent="1" vertex="1">
          <mxGeometry x="169.29000000000002" y="409.45" width="5.9" height="3.93" as="geometry" />
        </mxCell>
        <mxCell id="ATwWc056X0EkysEUGRjf-2" value="10" style="verticalLabelPosition=middle;verticalAlign=middle;shape=mxgraph.basic.rect;fillColor2=none;strokeWidth=0.3937;size=1.82;indent=5;snapToPoint=1;spacing=0;fontSize=2;labelPosition=center;align=center;spacingTop=1.9685;spacingLeft=0;spacingRight=0;fontFamily=Consolas;" parent="1" vertex="1">
          <mxGeometry x="27.580000000000005" y="82.67000000000002" width="5.9" height="3.93" as="geometry" />
        </mxCell>
        <mxCell id="-E6dwC6fU4psSkvqUc8i-1" value="3" style="verticalLabelPosition=middle;verticalAlign=middle;shape=mxgraph.basic.rect;fillColor2=none;strokeWidth=0.3937;size=20;indent=5;labelPosition=center;align=left;fontSize=3;spacing=0;spacingLeft=1.9685;fontFamily=Consolas;spacingTop=1.9685;" parent="1" vertex="1">
          <mxGeometry x="179.13" y="389.78" width="39.36" height="11.81" as="geometry" />
        </mxCell>
        <mxCell id="-E6dwC6fU4psSkvqUc8i-2" value="1.5" style="verticalLabelPosition=middle;verticalAlign=middle;shape=mxgraph.basic.rect;fillColor2=none;strokeWidth=0.3937;size=20;indent=5;labelPosition=center;align=left;fontSize=3;spacing=0;spacingLeft=1.9685;fontFamily=Consolas;spacingTop=1.9685;" parent="1" vertex="1">
          <mxGeometry x="179.13" y="401.59" width="39.36" height="5.91" as="geometry" />
        </mxCell>
        <mxCell id="-E6dwC6fU4psSkvqUc8i-3" value="2.5" style="verticalLabelPosition=middle;verticalAlign=middle;shape=mxgraph.basic.rect;fillColor2=none;strokeWidth=0.3937;size=5;indent=5;topLeftStyle=default;fontSize=3;labelPosition=center;align=left;spacing=0;spacingLeft=1.9685;fontFamily=Consolas;spacingTop=1.9685;" parent="1" vertex="1">
          <mxGeometry x="179.13" y="362.21999999999997" width="157.47" height="9.85" as="geometry" />
        </mxCell>
        <mxCell id="BFdBF8wN3BKMCY04Q8-_-7" value="SWITCH UPPER PART 6.5 mm" style="verticalLabelPosition=middle;verticalAlign=middle;shape=mxgraph.basic.rect;fillColor2=none;strokeWidth=0.3937;size=20;indent=5;snapToPoint=1;fontSize=3;labelPosition=center;align=center;spacing=0;fontFamily=Consolas;spacingTop=1.9685;spacingLeft=1.9685;" parent="1" vertex="1">
          <mxGeometry x="257.86" y="346.46" width="55.12" height="25.59" as="geometry" />
        </mxCell>
        <mxCell id="xJWUByJTI-TTXz5kbCh5-6" value="2" style="verticalLabelPosition=middle;verticalAlign=middle;shape=mxgraph.basic.rect;fillColor2=none;strokeWidth=0.3937;size=20;indent=5;snapToPoint=1;spacing=0;fontSize=3;labelPosition=center;align=center;spacingTop=1.9685;fontFamily=Consolas;spacingLeft=1.9685;" parent="1" vertex="1">
          <mxGeometry x="289.35999999999996" y="397.65000000000003" width="23.61" height="7.874" as="geometry" />
        </mxCell>
        <mxCell id="xJWUByJTI-TTXz5kbCh5-7" value="3" style="verticalLabelPosition=middle;verticalAlign=middle;shape=mxgraph.basic.rect;fillColor2=none;strokeWidth=0.3937;size=20;indent=5;snapToPoint=1;spacing=0;fontSize=3;labelPosition=center;align=left;spacingTop=1.9685;fontFamily=Consolas;spacingLeft=1.9685;fillColor=#E6FFCC;" parent="1" vertex="1">
          <mxGeometry x="39.38" y="62.989999999999995" width="88.57" height="11.81" as="geometry" />
        </mxCell>
        <mxCell id="xJWUByJTI-TTXz5kbCh5-9" value="2.5" style="verticalLabelPosition=middle;verticalAlign=middle;shape=mxgraph.basic.rect;fillColor2=none;strokeWidth=0.3937;size=3.72;indent=5;snapToPoint=1;spacing=0;fontSize=3;labelPosition=center;align=center;spacingTop=1.9685;fontFamily=Consolas;spacingLeft=1.9685;" parent="1" vertex="1">
          <mxGeometry x="228.34" y="397.65" width="11.81" height="9.8425" as="geometry" />
        </mxCell>
        <mxCell id="xJWUByJTI-TTXz5kbCh5-10" value="1" style="verticalLabelPosition=middle;verticalAlign=middle;shape=mxgraph.basic.rect;fillColor2=none;strokeWidth=0.3937;size=20;indent=5;spacing=0;fontSize=2;labelPosition=center;align=left;spacingLeft=1.9685;fontFamily=Consolas;spacingTop=1.9685;" parent="1" vertex="1">
          <mxGeometry x="179.13" y="407.5" width="19.68" height="3.94" as="geometry" />
        </mxCell>
        <mxCell id="xJWUByJTI-TTXz5kbCh5-12" value="1.5" style="verticalLabelPosition=middle;verticalAlign=middle;shape=mxgraph.basic.rect;fillColor2=none;strokeWidth=0.3937;size=20;indent=5;snapToPoint=1;spacing=0;fontSize=3;labelPosition=center;align=left;spacingTop=1.9685;spacingLeft=1.9685;fontFamily=Consolas;" parent="1" vertex="1">
          <mxGeometry x="179.13" y="372.06" width="19.68" height="5.91" as="geometry" />
        </mxCell>
        <mxCell id="Qzh2E_TufpZT9KLzvfDM-2" value="&lt;div style=&quot;line-height: 100%;&quot;&gt;&lt;font face=&quot;Consolas&quot;&gt;&amp;nbsp; &amp;nbsp; &amp;nbsp; &amp;nbsp; &amp;nbsp;mT&amp;nbsp; &amp;nbsp; &amp;nbsp; maxHead&amp;nbsp; &amp;nbsp; &amp;nbsp;HeadThicknes&amp;nbsp; &amp;nbsp; &amp;nbsp; Length&lt;/font&gt;&lt;/div&gt;&lt;div style=&quot;line-height: 100%;&quot;&gt;&lt;font face=&quot;Consolas&quot;&gt;M2.&amp;nbsp; &amp;nbsp; &amp;nbsp; 1.6&amp;nbsp; &amp;nbsp; &amp;nbsp;4.0&amp;nbsp; &amp;nbsp; &amp;nbsp; &amp;nbsp; &amp;nbsp;1.3&amp;nbsp; &amp;nbsp; &amp;nbsp; &amp;nbsp; &amp;nbsp; &amp;nbsp; &amp;nbsp; &amp;nbsp;3, 4, 5, 6, 8, 10, 12, 14, 16, 18, 20&lt;/font&gt;&lt;/div&gt;&lt;div style=&quot;line-height: 100%;&quot;&gt;&lt;font face=&quot;Consolas&quot;&gt;M2.5&amp;nbsp; &amp;nbsp; &amp;nbsp;2.0&amp;nbsp; &amp;nbsp; &amp;nbsp;5.0&amp;nbsp; &amp;nbsp; &amp;nbsp; &amp;nbsp; &amp;nbsp;1.7&amp;nbsp; &amp;nbsp; &amp;nbsp; &amp;nbsp; &amp;nbsp; &amp;nbsp; &amp;nbsp; &amp;nbsp;&lt;/font&gt;&lt;span style=&quot;font-family: Consolas; background-color: initial;&quot;&gt;3, 4, 5, 6, 8, 10, 12, 14, 16, 18, 20&lt;/span&gt;&lt;/div&gt;&lt;div style=&quot;line-height: 100%;&quot;&gt;&lt;font face=&quot;Consolas&quot;&gt;M3.&amp;nbsp; &amp;nbsp; &amp;nbsp; 2.5&amp;nbsp; &amp;nbsp; &amp;nbsp;6.0&amp;nbsp; &amp;nbsp; &amp;nbsp; &amp;nbsp; &amp;nbsp;1.8&amp;nbsp; &amp;nbsp; &amp;nbsp; &amp;nbsp; &amp;nbsp; &amp;nbsp; &amp;nbsp; &amp;nbsp; &amp;nbsp;&amp;nbsp;&lt;/font&gt;&lt;span style=&quot;font-family: Consolas; background-color: initial;&quot;&gt;4, 5, 6, 8, 10, 12, 14, 16, 18, 20&lt;/span&gt;&lt;/div&gt;" style="text;html=1;align=left;verticalAlign=top;whiteSpace=wrap;rounded=0;fontSize=2;spacing=0;spacingLeft=5.9055;" parent="1" vertex="1">
          <mxGeometry x="33.8" y="14.969999999999999" width="104.33" height="17.71" as="geometry" />
        </mxCell>
        <mxCell id="-E6dwC6fU4psSkvqUc8i-4" value="2.5" style="verticalLabelPosition=middle;verticalAlign=middle;shape=mxgraph.basic.rect;fillColor2=none;strokeWidth=0.3937;size=20;indent=5;labelPosition=center;align=left;fontSize=3;spacing=0;spacingLeft=1.9685;fontFamily=Consolas;spacingTop=1.9685;fillColor=#E6FFCC;" parent="1" vertex="1">
          <mxGeometry x="39.38" y="74.80000000000001" width="127.94" height="9.84" as="geometry" />
        </mxCell>
        <mxCell id="12Ary9XXmufizBWTGnjO-6" value="2.5 mm" style="verticalLabelPosition=middle;verticalAlign=middle;shape=mxgraph.basic.rect;fillColor2=none;strokeWidth=0.3937;size=20;indent=5;snapToPoint=1;spacing=0;labelPosition=center;align=center;fontSize=3;fontFamily=Consolas;spacingTop=1.9685;spacingLeft=1.9685;fillColor=default;" parent="1" vertex="1">
          <mxGeometry x="196.21" y="59.05" width="55.14" height="9.85" as="geometry" />
        </mxCell>
        <mxCell id="NTcPvVKUhjpcu_kJMHEb-8" value="" style="shape=trapezoid;perimeter=trapezoidPerimeter;whiteSpace=wrap;html=1;fixedSize=1;size=5.902250000000002;strokeColor=none;fillColor=#9933FF;rotation=0;fillStyle=solid;" parent="1" vertex="1">
          <mxGeometry x="56.18874999999999" y="82.67999999999998" width="23.622" height="7.874" as="geometry" />
        </mxCell>
        <mxCell id="12Ary9XXmufizBWTGnjO-5" value="" style="verticalLabelPosition=bottom;verticalAlign=top;shape=mxgraph.basic.rect;fillColor2=none;strokeWidth=0.3937;size=3.94;indent=5;snapToPoint=1;spacing=0;fontFamily=Consolas;spacingTop=1.9685;spacingLeft=1.9685;fillColor=default;" parent="1" vertex="1">
          <mxGeometry x="219.85000000000002" y="68.88999999999996" width="7.87" height="10.2362" as="geometry" />
        </mxCell>
        <mxCell id="PEXuOpN_gfjlifwDr6Oz-2" value="2" style="verticalLabelPosition=middle;verticalAlign=middle;shape=mxgraph.basic.rect;fillColor2=none;strokeWidth=0.3937;size=20;indent=5;labelPosition=center;align=left;fontSize=3;spacing=0;spacingLeft=1.9685;fontFamily=Consolas;spacingTop=1.9685;fillColor=default;" parent="1" vertex="1">
          <mxGeometry x="196.23000000000002" y="74.8" width="23.62" height="7.88" as="geometry" />
        </mxCell>
        <mxCell id="PEXuOpN_gfjlifwDr6Oz-5" value="" style="group" parent="1" vertex="1" connectable="0">
          <mxGeometry x="263.15000000000003" y="62.99089999999999" width="51.18000000000001" height="19.684599999999996" as="geometry" />
        </mxCell>
        <mxCell id="RTYT6uNbu9dAxZq9Mq6Q-8" value="3.5 x 9" style="verticalLabelPosition=middle;verticalAlign=middle;shape=mxgraph.basic.rect;fillColor2=none;strokeWidth=0.3937;size=6.89;indent=5;labelPosition=center;align=center;spacing=0;fontSize=2;spacingLeft=1.9685;fontFamily=Consolas;spacingTop=1.9685;rectStyle=rounded;absoluteCornerSize=0;topLeftStyle=default;topRightStyle=default;bottomRightStyle=default;bottomLeftStyle=default;fillColor=default;horizontal=1;" parent="PEXuOpN_gfjlifwDr6Oz-5" vertex="1">
          <mxGeometry x="7.880000000000052" width="35.433" height="13.779499999999999" as="geometry" />
        </mxCell>
        <mxCell id="RTYT6uNbu9dAxZq9Mq6Q-7" value="1.5 x 13" style="verticalLabelPosition=middle;verticalAlign=middle;shape=mxgraph.basic.rect;fillColor2=none;strokeWidth=0.3937;size=20;indent=5;labelPosition=center;align=left;spacing=0;fontSize=2;spacingLeft=1.9685;fontFamily=Consolas;spacingTop=1.9685;fillColor=default;" parent="PEXuOpN_gfjlifwDr6Oz-5" vertex="1">
          <mxGeometry y="13.7791" width="51.18" height="5.9055" as="geometry" />
        </mxCell>
        <mxCell id="PEXuOpN_gfjlifwDr6Oz-10" value="2" style="verticalLabelPosition=middle;verticalAlign=middle;shape=mxgraph.basic.rect;fillColor2=none;strokeWidth=0.3937;size=20;indent=5;labelPosition=center;align=left;fontSize=3;spacing=0;spacingLeft=1.9685;fontFamily=Consolas;spacingTop=1.9685;fillColor=default;" parent="1" vertex="1">
          <mxGeometry x="227.72" y="74.8" width="23.62" height="7.88" as="geometry" />
        </mxCell>
        <mxCell id="PEXuOpN_gfjlifwDr6Oz-12" value="1.5" style="verticalLabelPosition=middle;verticalAlign=middle;shape=mxgraph.basic.rect;fillColor2=none;strokeWidth=0.3937;size=20;indent=5;snapToPoint=1;spacing=0;fontSize=3;labelPosition=center;align=left;spacingTop=1.9685;fontFamily=Consolas;spacingLeft=1.9685;fillColor=#FFF2CC;" parent="1" vertex="1">
          <mxGeometry x="39.38" y="57.089999999999996" width="49.2" height="5.9" as="geometry" />
        </mxCell>
        <mxCell id="PEXuOpN_gfjlifwDr6Oz-13" value="11" style="verticalLabelPosition=middle;verticalAlign=middle;shape=mxgraph.basic.rect;fillColor2=none;strokeWidth=0.3937;size=1.82;indent=5;snapToPoint=1;spacing=0;fontSize=2;labelPosition=center;align=center;spacingTop=1.9685;spacingLeft=0;spacingRight=0;fontFamily=Consolas;" parent="1" vertex="1">
          <mxGeometry x="27.580000000000005" y="86.61000000000001" width="5.9" height="3.93" as="geometry" />
        </mxCell>
        <mxCell id="Qzh2E_TufpZT9KLzvfDM-15" value="M3 9" style="verticalLabelPosition=middle;verticalAlign=middle;shape=mxgraph.basic.rect;fillColor2=none;strokeWidth=0.3937;size=20;indent=5;labelPosition=center;align=center;fontSize=3;spacing=0;spacingLeft=0;fontFamily=Consolas;spacingTop=1.9685;fillColor=#9933FF;fontColor=#FFFFFF;horizontal=0;strokeColor=none;" parent="1" vertex="1">
          <mxGeometry x="62.089999999999996" y="51.17999999999999" width="11.81" height="39.37" as="geometry" />
        </mxCell>
        <mxCell id="PEXuOpN_gfjlifwDr6Oz-23" value="" style="group" parent="1" vertex="1" connectable="0">
          <mxGeometry x="102.35874999999999" y="59.049999999999976" width="19.689999999999998" height="11.800000000000018" as="geometry" />
        </mxCell>
        <mxCell id="NTcPvVKUhjpcu_kJMHEb-5" value="" style="shape=trapezoid;perimeter=trapezoidPerimeter;whiteSpace=wrap;html=1;fixedSize=1;size=4.921250000000001;strokeColor=none;fillColor=#3399FF;rotation=-180;fillStyle=solid;" parent="PEXuOpN_gfjlifwDr6Oz-23" vertex="1">
          <mxGeometry width="19.69" height="5.91" as="geometry" />
        </mxCell>
        <mxCell id="ZR2Huyt7dv55oFu_b3-r-18" value="M2.5 3" style="verticalLabelPosition=middle;verticalAlign=middle;shape=mxgraph.basic.rect;fillColor2=none;strokeWidth=0.3937;size=20;indent=5;labelPosition=center;align=center;fontSize=3;spacing=0;spacingLeft=0;fontFamily=Consolas;spacingTop=1.9685;fillColor=#3399FF;fontColor=#FFFFFF;horizontal=0;strokeColor=none;rotation=-180;" parent="PEXuOpN_gfjlifwDr6Oz-23" vertex="1">
          <mxGeometry x="5.001249999999999" y="2.1316282072803006e-14" width="9.85" height="11.8" as="geometry" />
        </mxCell>
        <mxCell id="NTcPvVKUhjpcu_kJMHEb-4" value="" style="shape=trapezoid;perimeter=trapezoidPerimeter;whiteSpace=wrap;html=1;fixedSize=1;size=5.90349999999998;strokeColor=none;fillColor=#000000;rotation=-360;fillStyle=solid;fontFamily=Helvetica;container=0;" parent="1" vertex="1">
          <mxGeometry x="110.23925" y="380.01" width="15.748" height="5.92" as="geometry" />
        </mxCell>
        <mxCell id="Qzh2E_TufpZT9KLzvfDM-22" value="M2 Xmm" style="verticalLabelPosition=middle;verticalAlign=middle;shape=mxgraph.basic.rect;fillColor2=none;strokeWidth=0.3937;size=20;indent=5;labelPosition=center;align=center;fontSize=3;spacing=0;spacingLeft=0;fontFamily=Helvetica;spacingTop=1.9685;fillColor=#000000;fontColor=#FFFFFF;horizontal=0;strokeColor=none;rotation=0;container=0;" parent="1" vertex="1">
          <mxGeometry x="114.26" y="346.46000000000004" width="7.87" height="39.36" as="geometry" />
        </mxCell>
        <mxCell id="ZLip_ffkF-UP-xcDLgmN-4" value="" style="ellipse;whiteSpace=wrap;html=1;aspect=fixed;fillColor=#9933FF;strokeColor=none;container=0;" parent="1" vertex="1">
          <mxGeometry x="19.68" y="391.74" width="23.62" height="23.62" as="geometry" />
        </mxCell>
        <mxCell id="ZLip_ffkF-UP-xcDLgmN-6" value="" style="ellipse;whiteSpace=wrap;html=1;aspect=fixed;fillColor=#6923B0;strokeColor=none;container=0;" parent="1" vertex="1">
          <mxGeometry x="25.590000000000003" y="397.64000000000004" width="11.81" height="11.81" as="geometry" />
        </mxCell>
        <mxCell id="ZLip_ffkF-UP-xcDLgmN-8" value="" style="ellipse;whiteSpace=wrap;html=1;aspect=fixed;fillColor=#009900;strokeColor=none;container=0;" parent="1" vertex="1">
          <mxGeometry x="80.71000000000001" y="393.71000000000004" width="19.69" height="19.69" as="geometry" />
        </mxCell>
        <mxCell id="ZLip_ffkF-UP-xcDLgmN-9" value="" style="ellipse;whiteSpace=wrap;html=1;aspect=fixed;fillColor=#005E00;strokeColor=none;container=0;" parent="1" vertex="1">
          <mxGeometry x="85.63125" y="398.62875" width="9.85" height="9.85" as="geometry" />
        </mxCell>
        <mxCell id="ZLip_ffkF-UP-xcDLgmN-14" value="" style="ellipse;whiteSpace=wrap;html=1;aspect=fixed;fillColor=#666666;strokeColor=none;container=0;" parent="1" vertex="1">
          <mxGeometry x="110.23" y="395.68" width="15.75" height="15.75" as="geometry" />
        </mxCell>
        <mxCell id="ZLip_ffkF-UP-xcDLgmN-15" value="" style="ellipse;whiteSpace=wrap;html=1;aspect=fixed;fillColor=#000000;strokeColor=none;container=0;" parent="1" vertex="1">
          <mxGeometry x="114.17124999999999" y="399.60875000000004" width="7.874" height="7.87" as="geometry" />
        </mxCell>
        <mxCell id="NTcPvVKUhjpcu_kJMHEb-7" value="" style="shape=trapezoid;perimeter=trapezoidPerimeter;whiteSpace=wrap;html=1;fixedSize=1;size=4.921250000000001;strokeColor=none;fillColor=#009900;rotation=0;fillStyle=solid;fontFamily=Helvetica;container=0;" parent="1" vertex="1">
          <mxGeometry x="80.69675" y="379.90000000000003" width="19.69" height="5.91" as="geometry" />
        </mxCell>
        <mxCell id="Qzh2E_TufpZT9KLzvfDM-19" value="M2.5 Xmm" style="verticalLabelPosition=middle;verticalAlign=middle;shape=mxgraph.basic.rect;fillColor2=none;strokeWidth=0.3937;size=20;indent=5;labelPosition=center;align=center;fontSize=3;spacing=0;spacingLeft=0;fontFamily=Helvetica;spacingTop=1.9685;fillColor=#005E00;fontColor=#FFFFFF;horizontal=0;strokeColor=none;container=0;" parent="1" vertex="1">
          <mxGeometry x="85.62" y="346.46000000000004" width="9.84" height="39.36" as="geometry" />
        </mxCell>
        <mxCell id="o2-Aj4wBCtstnL9yCd3O-3" value="" style="verticalLabelPosition=middle;verticalAlign=middle;shape=mxgraph.basic.rect;fillColor2=none;strokeWidth=0.3937;size=20;indent=5;labelPosition=center;align=center;fontSize=3;spacing=0;spacingLeft=0;fontFamily=Helvetica;spacingTop=1.9685;fillColor=#009900;fontColor=#FFFFFF;horizontal=0;strokeColor=none;container=0;" parent="1" vertex="1">
          <mxGeometry x="51.14999999999999" y="381.87" width="19.68" height="3.94" as="geometry" />
        </mxCell>
        <mxCell id="Qzh2E_TufpZT9KLzvfDM-5" value="M2.5 Xmm" style="verticalLabelPosition=middle;verticalAlign=middle;shape=mxgraph.basic.rect;fillColor2=none;strokeWidth=0.3937;size=20;indent=5;labelPosition=center;align=center;fontSize=3;spacing=0;spacingLeft=0;fontFamily=Helvetica;spacingTop=1.9685;fillColor=#005E00;fontColor=#FFFFFF;horizontal=0;strokeColor=none;container=0;" parent="1" vertex="1">
          <mxGeometry x="56.09" y="346.46000000000004" width="9.84" height="39.36" as="geometry" />
        </mxCell>
        <mxCell id="ZLip_ffkF-UP-xcDLgmN-1" value="" style="shape=trapezoid;perimeter=trapezoidPerimeter;whiteSpace=wrap;html=1;fixedSize=1;size=5.902250000000002;strokeColor=none;fillColor=#9933FF;rotation=0;fillStyle=solid;container=0;" parent="1" vertex="1">
          <mxGeometry x="21.648749999999993" y="377.96" width="23.622" height="7.874" as="geometry" />
        </mxCell>
        <mxCell id="ZLip_ffkF-UP-xcDLgmN-2" value="M3 Xmm" style="verticalLabelPosition=middle;verticalAlign=middle;shape=mxgraph.basic.rect;fillColor2=none;strokeWidth=0.3937;size=20;indent=5;labelPosition=center;align=center;fontSize=3;spacing=0;spacingLeft=0;fontFamily=Helvetica;spacingTop=1.9685;fillColor=#6923B0;fontColor=#FFFFFF;horizontal=0;strokeColor=none;container=0;" parent="1" vertex="1">
          <mxGeometry x="27.549999999999997" y="346.46" width="11.81" height="39.37" as="geometry" />
        </mxCell>
        <mxCell id="ZLip_ffkF-UP-xcDLgmN-20" value="" style="verticalLabelPosition=middle;verticalAlign=middle;shape=mxgraph.basic.rect;fillColor2=none;strokeWidth=0.3937;size=5;indent=5;topLeftStyle=default;spacing=0;labelPosition=center;align=left;fontSize=3;spacingLeft=1.9685;fontFamily=Consolas;spacingTop=1.9685;fillColor=none;" parent="1" vertex="1">
          <mxGeometry x="39.37" y="118.11" width="86.61" height="86.61" as="geometry" />
        </mxCell>
        <mxCell id="ZLip_ffkF-UP-xcDLgmN-24" value="" style="group" parent="1" vertex="1" connectable="0">
          <mxGeometry x="55.13000000000001" y="133.85" width="23.620000000000005" height="23.620000000000005" as="geometry" />
        </mxCell>
        <mxCell id="ZLip_ffkF-UP-xcDLgmN-22" value="" style="ellipse;whiteSpace=wrap;html=1;aspect=fixed;fillColor=#9933FF;strokeColor=none;container=0;" parent="ZLip_ffkF-UP-xcDLgmN-24" vertex="1">
          <mxGeometry width="23.62" height="23.62" as="geometry" />
        </mxCell>
        <mxCell id="ZLip_ffkF-UP-xcDLgmN-23" value="" style="ellipse;whiteSpace=wrap;html=1;aspect=fixed;fillColor=#6923B0;strokeColor=none;container=0;" parent="ZLip_ffkF-UP-xcDLgmN-24" vertex="1">
          <mxGeometry x="5.909999999999997" y="5.900000000000034" width="11.81" height="11.81" as="geometry" />
        </mxCell>
        <mxCell id="ZLip_ffkF-UP-xcDLgmN-25" value="" style="group" parent="1" vertex="1" connectable="0">
          <mxGeometry x="51.18" y="393.71000000000004" width="19.690000000000005" height="19.689999999999998" as="geometry" />
        </mxCell>
        <mxCell id="ZLip_ffkF-UP-xcDLgmN-5" value="" style="ellipse;whiteSpace=wrap;html=1;aspect=fixed;fillColor=#009900;strokeColor=none;container=0;" parent="ZLip_ffkF-UP-xcDLgmN-25" vertex="1">
          <mxGeometry width="19.69" height="19.69" as="geometry" />
        </mxCell>
        <mxCell id="ZLip_ffkF-UP-xcDLgmN-7" value="" style="ellipse;whiteSpace=wrap;html=1;aspect=fixed;fillColor=#005E00;strokeColor=none;container=0;" parent="ZLip_ffkF-UP-xcDLgmN-25" vertex="1">
          <mxGeometry x="4.921250000000001" y="4.918749999999989" width="9.85" height="9.85" as="geometry" />
        </mxCell>
        <mxCell id="ZLip_ffkF-UP-xcDLgmN-29" value="" style="verticalLabelPosition=middle;verticalAlign=middle;shape=mxgraph.basic.rect;fillColor2=none;strokeWidth=0.3937;size=5;indent=5;topLeftStyle=default;spacing=0;labelPosition=center;align=left;fontSize=3;spacingLeft=1.9685;fontFamily=Consolas;spacingTop=1.9685;fillColor=none;" parent="1" vertex="1">
          <mxGeometry x="86.61" y="165.35" width="118.11" height="78.74" as="geometry" />
        </mxCell>
        <mxCell id="xn96aYEePbD-iHJultge-1" value="" style="verticalLabelPosition=middle;verticalAlign=middle;shape=mxgraph.basic.rect;fillColor2=none;strokeWidth=0.3937;size=20;indent=5;labelPosition=center;align=center;fontSize=3;spacing=0;spacingLeft=0;fontFamily=Helvetica;spacingTop=1.9685;fillColor=#3399FF;fontColor=#FFFFFF;horizontal=0;strokeColor=none;container=0;" vertex="1" parent="1">
          <mxGeometry x="137.79699999999997" y="64.9605" width="19.68" height="3.94" as="geometry" />
        </mxCell>
        <mxCell id="PEXuOpN_gfjlifwDr6Oz-18" value="M2.5 3" style="verticalLabelPosition=middle;verticalAlign=middle;shape=mxgraph.basic.rect;fillColor2=none;strokeWidth=0.3937;size=20;indent=5;labelPosition=center;align=center;fontSize=3;spacing=0;spacingLeft=0;fontFamily=Consolas;spacingTop=1.9685;fillColor=#3399FF;fontColor=#FFFFFF;horizontal=0;strokeColor=none;rotation=-180;" parent="1" vertex="1">
          <mxGeometry x="142.71" y="64.9605" width="9.84" height="15.748" as="geometry" />
        </mxCell>
        <mxCell id="xn96aYEePbD-iHJultge-2" value="" style="shape=trapezoid;perimeter=trapezoidPerimeter;whiteSpace=wrap;html=1;fixedSize=1;size=4.921250000000001;strokeColor=none;fillColor=#009900;rotation=0;fillStyle=solid;fontFamily=Helvetica;container=0;" vertex="1" parent="1">
          <mxGeometry x="102.36375" y="82.64700000000006" width="19.69" height="5.91" as="geometry" />
        </mxCell>
        <mxCell id="xn96aYEePbD-iHJultge-3" value="M2.5 Xmm" style="verticalLabelPosition=middle;verticalAlign=middle;shape=mxgraph.basic.rect;fillColor2=none;strokeWidth=0.3937;size=20;indent=5;labelPosition=center;align=center;fontSize=3;spacing=0;spacingLeft=0;fontFamily=Helvetica;spacingTop=1.9685;fillColor=#005E00;fontColor=#FFFFFF;horizontal=0;strokeColor=none;container=0;" vertex="1" parent="1">
          <mxGeometry x="107.29" y="76.77" width="9.84" height="11.8" as="geometry" />
        </mxCell>
        <mxCell id="ZLip_ffkF-UP-xcDLgmN-26" value="" style="group" parent="1" vertex="1" connectable="0">
          <mxGeometry x="98.42" y="177.17000000000002" width="19.690000000000005" height="19.689999999999998" as="geometry" />
        </mxCell>
        <mxCell id="ZLip_ffkF-UP-xcDLgmN-27" value="" style="ellipse;whiteSpace=wrap;html=1;aspect=fixed;fillColor=#009900;strokeColor=none;container=0;" parent="ZLip_ffkF-UP-xcDLgmN-26" vertex="1">
          <mxGeometry width="19.69" height="19.69" as="geometry" />
        </mxCell>
        <mxCell id="ZLip_ffkF-UP-xcDLgmN-28" value="" style="ellipse;whiteSpace=wrap;html=1;aspect=fixed;fillColor=#005E00;strokeColor=none;container=0;" parent="ZLip_ffkF-UP-xcDLgmN-26" vertex="1">
          <mxGeometry x="4.921250000000001" y="4.918749999999989" width="9.85" height="9.85" as="geometry" />
        </mxCell>
        <mxCell id="xn96aYEePbD-iHJultge-4" value="" style="group" vertex="1" connectable="0" parent="1">
          <mxGeometry x="98.43700000000001" y="133.847" width="23.620000000000005" height="23.620000000000005" as="geometry" />
        </mxCell>
        <mxCell id="xn96aYEePbD-iHJultge-5" value="" style="ellipse;whiteSpace=wrap;html=1;aspect=fixed;fillColor=#9933FF;strokeColor=none;container=0;" vertex="1" parent="xn96aYEePbD-iHJultge-4">
          <mxGeometry width="23.62" height="23.62" as="geometry" />
        </mxCell>
        <mxCell id="xn96aYEePbD-iHJultge-6" value="" style="ellipse;whiteSpace=wrap;html=1;aspect=fixed;fillColor=#6923B0;strokeColor=none;container=0;" vertex="1" parent="xn96aYEePbD-iHJultge-4">
          <mxGeometry x="5.909999999999997" y="5.900000000000034" width="11.81" height="11.81" as="geometry" />
        </mxCell>
      </root>
    </mxGraphModel>
  </diagram>
</mxfile>
